<?xml version="1.0" encoding="UTF-8"?>
<svg id="Calque_1" data-name="Calque 1" xmlns="http://www.w3.org/2000/svg" xmlns:xlink="http://www.w3.org/1999/xlink" viewBox="0 0 746.3 321.93">
  <defs>
    <style>
      .cls-1 {
        fill: url(#Dégradé_sans_nom_294-12);
      }

      .cls-1, .cls-2, .cls-3, .cls-4 {
        stroke-linejoin: round;
        stroke-width: 4px;
      }

      .cls-1, .cls-2, .cls-3, .cls-4, .cls-5 {
        stroke: #000;
      }

      .cls-2 {
        fill: url(#Dégradé_sans_nom_294-13);
      }

      .cls-3 {
        fill: url(#Dégradé_sans_nom_294-11);
      }

      .cls-4 {
        fill: url(#Dégradé_sans_nom_294-14);
      }

      .cls-6 {
        fill: url(#Dégradé_sans_nom_294-4);
      }

      .cls-7 {
        fill: url(#Dégradé_sans_nom_294-8);
      }

      .cls-8 {
        fill: url(#Dégradé_sans_nom_294-9);
      }

      .cls-9 {
        fill: url(#Dégradé_sans_nom_294-6);
      }

      .cls-10 {
        fill: url(#Dégradé_sans_nom_294-7);
      }

      .cls-11 {
        fill: url(#Dégradé_sans_nom_294-5);
      }

      .cls-12 {
        fill: url(#Dégradé_sans_nom_294-3);
      }

      .cls-13 {
        fill: url(#Dégradé_sans_nom_294-2);
      }

      .cls-14 {
        fill: url(#Dégradé_sans_nom_294-10);
      }

      .cls-5 {
        stroke-miterlimit: 10;
        stroke-width: .5px;
      }

      .cls-15 {
        fill: url(#Dégradé_sans_nom_294);
      }
    </style>
    <radialGradient id="Dégradé_sans_nom_294" data-name="Dégradé sans nom 294" cx="185.97" cy="144.12" fx="185.97" fy="144.12" r="14.17" gradientUnits="userSpaceOnUse">
      <stop offset="0" stop-color="#e1b51f"/>
      <stop offset=".15" stop-color="#eaa91e"/>
      <stop offset=".46" stop-color="#f9991e"/>
      <stop offset=".69" stop-color="#ff931e"/>
    </radialGradient>
    <radialGradient id="Dégradé_sans_nom_294-2" data-name="Dégradé sans nom 294" cx="694.44" cy="211.04" fx="694.44" fy="211.04" r="54.5" xlink:href="#Dégradé_sans_nom_294"/>
    <radialGradient id="Dégradé_sans_nom_294-3" data-name="Dégradé sans nom 294" cx="373.3" cy="69.67" fx="373.3" fy="69.67" r="54.5" xlink:href="#Dégradé_sans_nom_294"/>
    <radialGradient id="Dégradé_sans_nom_294-4" data-name="Dégradé sans nom 294" cx="373.3" cy="69.67" fx="373.3" fy="69.67" r="59.44" xlink:href="#Dégradé_sans_nom_294"/>
    <radialGradient id="Dégradé_sans_nom_294-5" data-name="Dégradé sans nom 294" cx="587.96" cy="211.04" fx="587.96" fy="211.04" r="54.5" xlink:href="#Dégradé_sans_nom_294"/>
    <radialGradient id="Dégradé_sans_nom_294-6" data-name="Dégradé sans nom 294" cx="587.96" cy="211.04" fx="587.96" fy="211.04" r="59.44" xlink:href="#Dégradé_sans_nom_294"/>
    <radialGradient id="Dégradé_sans_nom_294-7" data-name="Dégradé sans nom 294" cx="587.96" cy="186.29" fx="587.96" fy="186.29" r="8.42" xlink:href="#Dégradé_sans_nom_294"/>
    <radialGradient id="Dégradé_sans_nom_294-8" data-name="Dégradé sans nom 294" cx="427.2" cy="160.97" fx="427.2" fy="160.97" r="181.64" xlink:href="#Dégradé_sans_nom_294"/>
    <radialGradient id="Dégradé_sans_nom_294-9" data-name="Dégradé sans nom 294" cx="342.18" cy="81.51" fx="342.18" fy="81.51" r="75.76" xlink:href="#Dégradé_sans_nom_294"/>
    <radialGradient id="Dégradé_sans_nom_294-10" data-name="Dégradé sans nom 294" cx="689.72" cy="152.29" fx="689.72" fy="152.29" r=".07" xlink:href="#Dégradé_sans_nom_294"/>
    <radialGradient id="Dégradé_sans_nom_294-11" data-name="Dégradé sans nom 294" cx="159.15" cy="44.92" fx="159.15" fy="44.92" r="8.42" xlink:href="#Dégradé_sans_nom_294"/>
    <radialGradient id="Dégradé_sans_nom_294-12" data-name="Dégradé sans nom 294" cx="105.5" cy="90.28" fx="105.5" fy="90.28" r="96.19" xlink:href="#Dégradé_sans_nom_294"/>
    <radialGradient id="Dégradé_sans_nom_294-13" data-name="Dégradé sans nom 294" cx="159.15" cy="75.81" fx="159.15" fy="75.81" r="60.04" xlink:href="#Dégradé_sans_nom_294"/>
    <radialGradient id="Dégradé_sans_nom_294-14" data-name="Dégradé sans nom 294" cx="105.5" cy="90.28" fx="105.5" fy="90.28" r="93.2" xlink:href="#Dégradé_sans_nom_294"/>
  </defs>
  <g>
    <g>
      <polygon class="cls-15" points="206.01 144.1 165.93 144.14 165.93 144.14 206.01 144.13 206.01 144.13 206.01 144.1"/>
      <polygon points="206.01 144.1 165.93 144.14 165.93 144.14 206.01 144.13 206.01 144.13 206.01 144.1 206.01 144.1"/>
    </g>
    <g>
      <path class="cls-13" d="M703.22,273.72v-95.29c0-2.23-1.68-3.91-3.91-3.91h-9.74c-2.23,0-3.91,1.68-3.91,3.91v95.29h-36.08v-125.35h36.08v8.05c0,.76,.43,1.46,1.12,1.8,.28,.14,.58,.2,.88,.2,.43,0,.87-.14,1.22-.42l2.42-1.87c6.66-5.15,16.74-7.76,29.96-7.76,16.17,0,18.04,7.58,18.04,13.28v112.07h-36.08Z"/>
      <path d="M721.26,150.37c14.13,0,16.04,5.7,16.04,11.28v110.07h-32.08v-93.29c0-3.32-2.6-5.91-5.91-5.91h-9.74c-3.32,0-5.91,2.6-5.91,5.91v93.29h-32.08v-121.35h32.08v6.05c0,1.53,.87,2.92,2.24,3.59,.56,.27,1.16,.41,1.76,.41,.87,0,1.73-.28,2.45-.84l2.42-1.87c6.3-4.87,15.97-7.34,28.74-7.34m0-4c-13.68,0-24.17,2.75-31.19,8.18l-2.42,1.87v-10.05h-40.08v129.35h40.08v-97.29c0-1.11,.8-1.91,1.91-1.91h9.74c1.11,0,1.91,.8,1.91,1.91v97.29h40.08v-114.07c0-10.28-6.55-15.28-20.04-15.28h0Z"/>
    </g>
    <g>
      <path class="cls-12" d="M346.48,132.35c-16.17,0-18.04-7.34-18.04-12.86V20.28c0-5.7,1.87-13.28,18.04-13.28h53.64c16.17,0,18.04,7.58,18.04,13.28v18.87h-36.08v-2.09c0-2.23-1.68-3.91-3.91-3.91h-9.73c-2.23,0-3.91,1.68-3.91,3.91V102.5c0,2.23,1.68,3.91,3.91,3.91h11.65c1.1,0,2-.9,2-2V58.36h36.08v73.98h-71.68Z"/>
      <path d="M400.12,9c14.14,0,16.04,5.7,16.04,11.28v16.87h-32.08v-.09c0-3.32-2.6-5.91-5.91-5.91h-9.73c-3.32,0-5.91,2.6-5.91,5.91V102.5c0,3.32,2.6,5.91,5.91,5.91h11.65c2.21,0,4-1.79,4-4V60.36h32.08v69.98h-69.68c-14.14,0-16.04-5.49-16.04-10.86V20.28c0-5.58,1.91-11.28,16.04-11.28h53.64m0-4h-53.64c-13.49,0-20.04,5-20.04,15.28V119.48c0,10,6.56,14.86,20.04,14.86h73.68V56.36h-40.08v48.05h-11.65c-1.11,0-1.91-.81-1.91-1.91V37.05c0-1.11,.81-1.91,1.91-1.91h9.73c1.11,0,1.91,.81,1.91,1.91v4.09h40.08V20.28c0-10.28-6.56-15.28-20.04-15.28h0Z"/>
    </g>
    <g>
      <path class="cls-6" d="M346.48,137.35h76.68V53.36h-46.08v48.05h-7.56V38.14h7.56v6.01h46.08V20.28c0-12.13-7.75-18.28-23.04-18.28h-53.64c-15.29,0-23.04,6.15-23.04,18.28V119.48c0,11.85,7.75,17.86,23.04,17.86Zm-20.04-117.07c0-10.28,6.56-15.28,20.04-15.28h53.64c13.49,0,20.04,5,20.04,15.28v20.87h-40.08v-4.09c0-1.11-.8-1.91-1.91-1.91h-9.73c-1.11,0-1.91,.81-1.91,1.91V102.5c0,1.11,.81,1.91,1.91,1.91h11.65V56.36h40.08v77.98h-73.68c-13.49,0-20.04-4.86-20.04-14.86V20.28Z"/>
      <path d="M400.12,2h-53.64c-15.29,0-23.04,6.15-23.04,18.28V119.48c0,11.85,7.75,17.86,23.04,17.86h76.68V53.36h-46.08v48.05h-7.56V38.14h7.56v6.01h46.08V20.28c0-12.13-7.75-18.28-23.04-18.28h0Zm-53.64,132.35c-13.49,0-20.04-4.86-20.04-14.86V20.28c0-10.28,6.56-15.28,20.04-15.28h53.64c13.49,0,20.04,5,20.04,15.28v20.87h-40.08v-4.09c0-1.11-.8-1.91-1.91-1.91h-9.73c-1.11,0-1.91,.81-1.91,1.91V102.5c0,1.11,.81,1.91,1.91,1.91h11.65V56.36h40.08v77.98h-73.68Z"/>
    </g>
    <g>
      <path class="cls-11" d="M596.75,273.72v-47.5c0-1.1-.9-2-2-2h-13.57c-1.1,0-2,.9-2,2v47.5h-36.08v-112.07c0-5.7,1.87-13.28,18.04-13.28h53.64c16.17,0,18.04,7.58,18.04,13.28v112.07h-36.08Zm-13.65-99.21c-2.23,0-3.91,1.68-3.91,3.91v17.66c0,1.1,.9,2,2,2h13.57c1.1,0,2-.9,2-2v-17.66c0-2.23-1.68-3.91-3.91-3.91h-9.74Z"/>
      <path d="M614.79,150.37c14.13,0,16.04,5.7,16.04,11.28v110.07h-32.08v-45.5c0-2.21-1.79-4-4-4h-13.57c-2.21,0-4,1.79-4,4v45.5h-32.08v-110.07c0-5.58,1.91-11.28,16.04-11.28h53.64m-33.6,49.71h13.57c2.21,0,4-1.79,4-4v-17.66c0-3.32-2.6-5.91-5.91-5.91h-9.74c-3.32,0-5.91,2.6-5.91,5.91v17.66c0,2.21,1.79,4,4,4m33.6-53.71h-53.64c-13.48,0-20.04,5-20.04,15.28v114.07h40.08v-49.5h13.57v49.5h40.08v-114.07c0-10.28-6.55-15.28-20.04-15.28h0Zm-33.6,49.71v-17.66c0-1.11,.8-1.91,1.91-1.91h9.74c1.11,0,1.91,.8,1.91,1.91v17.66h-13.57Z"/>
    </g>
    <g>
      <path class="cls-9" d="M614.79,143.37h-53.64c-15.29,0-23.04,6.15-23.04,18.28v117.07h46.08v-49.5h7.57v49.5h46.08v-117.07c0-12.13-7.75-18.28-23.04-18.28Zm20.04,132.35h-40.08v-49.5h-13.57v49.5h-40.08v-114.07c0-10.28,6.55-15.28,20.04-15.28h53.64c13.49,0,20.04,5,20.04,15.28v114.07Z"/>
      <path d="M614.79,143.37h-53.64c-15.29,0-23.04,6.15-23.04,18.28v117.07h46.08v-49.5h7.57v49.5h46.08v-117.07c0-12.13-7.75-18.28-23.04-18.28h0Zm-73.68,132.35v-114.07c0-10.28,6.55-15.28,20.04-15.28h53.64c13.49,0,20.04,5,20.04,15.28v114.07h-40.08v-49.5h-13.57v49.5h-40.08Z"/>
    </g>
    <g>
      <path class="cls-10" d="M592.83,176.51h-9.74c-1.11,0-1.91,.8-1.91,1.91v17.66h13.57v-17.66c0-1.11-.8-1.91-1.91-1.91Zm-8.65,3h7.57v13.57h-7.57v-13.57Z"/>
      <path d="M592.83,176.51h-9.74c-1.11,0-1.91,.8-1.91,1.91v17.66h13.57v-17.66c0-1.11-.8-1.91-1.91-1.91h0Zm-8.65,16.57v-13.57h7.57v13.57h-7.57Z"/>
    </g>
    <g>
      <path class="cls-7" d="M508.12,314.93c-2.21,0-4.44-.39-6.61-1.15-2.23-.78-4.25-1.84-6.03-3.14-1.7-1.25-3.07-2.7-4.07-4.31-.89-1.43-1.33-2.86-1.33-4.26v-123.65c0-2.23-1.68-3.91-3.91-3.91h-10.15c-2.23,0-3.92,1.68-3.92,3.91v95.29h-36.08v-95.29c0-2.23-1.68-3.91-3.91-3.91h-9.73c-2.23,0-3.91,1.68-3.91,3.91v95.29h-36.08v-99.6c0-.54-.21-1.05-.6-1.43-.37-.37-.88-.57-1.4-.57-.01,0-86.95,1.44-86.95,1.44-16.32,0-18.21-7.34-18.21-12.86V37.05c0-2.23-1.68-3.91-3.91-3.91h-9.73c-2.23,0-3.91,1.68-3.91,3.91v95.29h-36.08V7h36.08V15.05c0,.76,.43,1.46,1.12,1.8,.28,.14,.58,.2,.88,.2,.44,0,.87-.14,1.22-.42l2.42-1.87c6.66-5.15,16.74-7.76,29.96-7.76,16.17,0,18.04,7.58,18.04,13.28v123.44c0,2.23,1.68,3.91,3.92,3.91h75.03c.13,.03,.27,.04,.41,.04h27.76l.09,9.43c0,.81,.51,1.54,1.27,1.84,.24,.09,.49,.14,.73,.14,.54,0,1.07-.22,1.45-.62l2.55-2.69c2.18-2.3,5.46-4.1,9.74-5.37,4.55-1.35,9.83-2.03,15.68-2.03s10.29,.72,13.32,2.15c2.95,1.39,5.45,3.51,7.44,6.31l1.16,1.63c.36,.51,.95,.83,1.58,.84,.02,0,.04,0,.05,0,.61,0,1.19-.28,1.57-.76l1.24-1.57c2.69-3.39,6.08-5.67,10.1-6.77,4.44-1.22,9.95-1.84,16.37-1.84,3.39,0,6.59,.41,9.53,1.22,2.84,.79,5.3,1.91,7.31,3.32,1.94,1.37,3.49,3,4.62,4.86,1.04,1.71,1.56,3.58,1.56,5.54v121.78c0,2.23,1.68,3.91,3.91,3.91h103.17v25.93h-124.71Z"/>
      <path d="M293.25,9c14.13,0,16.04,5.7,16.04,11.28v123.44c0,3.32,2.6,5.91,5.92,5.91h74.85c.19,.03,.39,.04,.59,.04h25.78l.07,7.45c.02,1.63,1.02,3.09,2.54,3.68,.48,.19,.97,.28,1.46,.28,1.08,0,2.13-.44,2.9-1.25l2.55-2.69c1.94-2.04,4.92-3.66,8.86-4.83,4.37-1.29,9.45-1.95,15.11-1.95,6.86,0,10.57,1.07,12.47,1.96,2.63,1.24,4.87,3.14,6.65,5.66l1.16,1.63c.73,1.03,1.9,1.65,3.16,1.69,.04,0,.07,0,.11,0,1.22,0,2.37-.56,3.13-1.51l1.24-1.57c2.42-3.05,5.47-5.1,9.06-6.09,4.27-1.17,9.6-1.77,15.83-1.77,3.21,0,6.23,.39,8.99,1.14,2.62,.73,4.88,1.75,6.69,3.03,1.71,1.21,3.08,2.65,4.06,4.26,.85,1.4,1.28,2.92,1.28,4.51v121.78c0,3.32,2.6,5.91,5.91,5.91h101.17v21.93h-122.71c-1.99,0-3.99-.35-5.94-1.03-2.04-.72-3.89-1.68-5.51-2.87-1.49-1.1-2.69-2.36-3.55-3.75-.69-1.11-1.04-2.19-1.04-3.21v-123.65c0-3.32-2.6-5.91-5.91-5.91h-10.15c-3.32,0-5.92,2.6-5.92,5.91v93.29h-32.08v-93.29c0-3.32-2.6-5.91-5.91-5.91h-9.73c-3.32,0-5.91,2.6-5.91,5.91v93.29h-32.08v-97.6c0-1.07-.43-2.1-1.2-2.85-.75-.74-1.76-1.15-2.8-1.15-.02,0-.04,0-.07,0l-86.89,1.44c-14.28,0-16.21-5.5-16.21-10.86V37.05c0-3.32-2.6-5.91-5.91-5.91h-9.73c-3.32,0-5.91,2.6-5.91,5.91v93.29h-32.08V9h32.08v6.05c0,1.53,.87,2.92,2.24,3.59,.56,.27,1.16,.41,1.76,.41,.87,0,1.73-.28,2.45-.84l2.42-1.87c6.3-4.87,15.97-7.34,28.74-7.34m0-4c-13.68,0-24.17,2.75-31.18,8.18l-2.42,1.87V5h-40.08V134.35h40.08V37.05c0-1.11,.81-1.91,1.91-1.91h9.73c1.11,0,1.91,.81,1.91,1.91v123.65c0,10,6.62,14.86,20.25,14.86l86.92-1.44v101.6h40.08v-97.29c0-1.11,.8-1.91,1.91-1.91h9.73c1.11,0,1.91,.8,1.91,1.91v97.29h40.08v-97.29c0-1.11,.81-1.91,1.92-1.91h10.15c1.11,0,1.91,.8,1.91,1.91v123.65c0,1.78,.55,3.57,1.64,5.32,1.14,1.83,2.68,3.47,4.58,4.86,1.93,1.42,4.14,2.57,6.55,3.42,2.38,.84,4.83,1.26,7.27,1.26h126.71v-29.93h-105.17c-1.11,0-1.91-.8-1.91-1.91v-121.78c0-2.33-.62-4.54-1.85-6.58-1.27-2.09-3.01-3.92-5.17-5.45-2.19-1.54-4.86-2.76-7.93-3.61-3.1-.86-6.49-1.29-10.06-1.29-6.6,0-12.28,.64-16.9,1.91-4.43,1.22-8.18,3.73-11.13,7.46l-1.24,1.57-1.16-1.63c-2.19-3.09-4.95-5.43-8.22-6.97-3.3-1.55-8.07-2.34-14.17-2.34s-11.51,.71-16.25,2.11c-4.62,1.37-8.2,3.35-10.62,5.91l-2.55,2.69-.11-11.41h-29.74l.14-.04h-75.58c-1.11,0-1.92-.81-1.92-1.91V20.28c0-10.28-6.56-15.28-20.04-15.28h0Z"/>
    </g>
    <g>
      <path class="cls-8" d="M422.45,151.82s.06,.03,.09,.05c.06,.03,.11,.05,.17,.08-.09,.08-.18,.16-.26,.24v-.36ZM261.65,10.84s.09,.05,.12,.06c-.04,.03-.08,.06-.12,.09v-.15Z"/>
      <path d="M293.25,2c-12.9,0-23.17,2.39-30.6,7.11V2h-46.08V137.35h46.08V38.14h7.56v122.56c0,11.85,7.82,17.86,23.27,17.86l83.9-1.39v101.55h46.08v-99.21h7.56v99.21h46.08v-99.21h7.98v122.56c0,2.35,.7,4.67,2.09,6.9,1.34,2.16,3.14,4.07,5.36,5.7,2.17,1.59,4.64,2.88,7.33,3.83,2.7,.95,5.48,1.43,8.26,1.43h129.71v-35.93h-107.08v-120.7c0-2.89-.77-5.62-2.29-8.13-1.48-2.44-3.5-4.58-6.01-6.35-2.47-1.74-5.45-3.11-8.86-4.05-3.37-.93-7.02-1.4-10.86-1.4-6.87,0-12.82,.68-17.69,2.02-4.46,1.23-8.3,3.59-11.45,7.03-2.29-2.77-5.05-4.93-8.22-6.43-3.7-1.74-8.9-2.63-15.45-2.63s-12.09,.75-17.1,2.24c-3.74,1.1-6.88,2.6-9.39,4.47l-.07-7.4h-12.76l.14-.04h-94.45V20.28c0-12.13-7.75-18.28-23.04-18.28h0Zm-33.6,13.05l2.42-1.87c7.02-5.43,17.51-8.18,31.18-8.18s20.04,5,20.04,15.28v123.44c0,1.11,.81,1.91,1.92,1.91h75.58l-.14,.04h29.74l.11,11.41,2.55-2.69c2.43-2.56,6-4.54,10.62-5.91,4.74-1.4,10.2-2.11,16.25-2.11s10.87,.79,14.17,2.34c3.26,1.54,6.03,3.88,8.22,6.97l1.16,1.63,1.24-1.57c2.96-3.73,6.7-6.24,11.13-7.46,4.61-1.27,10.3-1.91,16.9-1.91,3.57,0,6.95,.43,10.06,1.29,3.07,.85,5.73,2.07,7.93,3.61,2.17,1.53,3.91,3.37,5.17,5.45,1.23,2.03,1.85,4.25,1.85,6.58v121.78c0,1.11,.8,1.91,1.91,1.91h105.17v29.93h-126.71c-2.44,0-4.89-.42-7.27-1.26-2.41-.85-4.61-2-6.55-3.42-1.9-1.4-3.45-3.04-4.58-4.86-1.09-1.75-1.64-3.54-1.64-5.32v-123.65c0-1.11-.8-1.91-1.91-1.91h-10.15c-1.11,0-1.92,.8-1.92,1.91v97.29h-40.08v-97.29c0-1.11-.8-1.91-1.91-1.91h-9.73c-1.11,0-1.91,.8-1.91,1.91v97.29h-40.08v-101.6l-86.92,1.44c-13.62,0-20.25-4.86-20.25-14.86V37.05c0-1.11-.81-1.91-1.91-1.91h-9.73c-1.11,0-1.91,.81-1.91,1.91v97.29h-40.08V5h40.08V15.05h0Z"/>
    </g>
    <g>
      <path class="cls-14" d="M689.66,152.21s.09,.05,.12,.06c-.04,.03-.08,.06-.12,.09v-.15Z"/>
      <path d="M721.26,143.37c-12.89,0-23.17,2.39-30.6,7.11v-7.11h-46.08v135.35h46.08v-99.21h7.57v99.21h46.08v-117.07c0-12.13-7.75-18.28-23.04-18.28h0Zm-33.6,13.05l2.42-1.87c7.02-5.43,17.51-8.18,31.19-8.18s20.04,5,20.04,15.28v114.07h-40.08v-97.29c0-1.11-.8-1.91-1.91-1.91h-9.74c-1.11,0-1.91,.8-1.91,1.91v97.29h-40.08V146.37h40.08v10.05h0Z"/>
    </g>
    <path class="cls-3" d="M164.01,35.14h-9.73c-1.11,0-1.91,.81-1.91,1.91v17.65h13.56v-17.65c0-1.11-.81-1.91-1.91-1.91Zm-8.65,3h7.56v13.57h-7.56v-13.57Z"/>
    <path class="cls-1" d="M185.97,2h-53.64c-15.29,0-23.04,6.15-23.04,18.28v117.07h46.08v-49.5h7.56v54.79h-61.21V2H55.64V52.95h-7.56V2H2V137.35H48.08v-50.95h7.56v74.3c0,11.85,7.75,17.86,23.04,17.86H209.01V20.28c0-12.13-7.75-18.28-23.04-18.28Zm20.04,173.56H78.68c-13.48,0-20.04-4.86-20.04-14.86V83.4h-13.56v50.95H5V5H45.08V55.95h13.56V5h40.08V143.72c0,1.11,.81,1.91,1.92,1.91h65.3s0-1.49,0-1.49v-.74s0-58.55,0-58.55h-13.56v49.5h-40.08V20.28c0-10.28,6.56-15.28,20.04-15.28h53.64c13.48,0,20.04,5,20.04,15.28v123.85h0v31.43Z"/>
    <path class="cls-2" d="M206.01,145.66V20.28c0-10.28-6.56-15.28-20.04-15.28h-53.64c-13.48,0-20.04,5-20.04,15.28v114.07h40.08v-49.5h13.56v61.77s0-.33,0-.33m0-91.57h-13.56v-17.65c0-1.11,.81-1.91,1.91-1.91h9.73c1.11,0,1.91,.81,1.91,1.91v17.65Z"/>
    <path class="cls-4" d="M167.91,145.64H100.64c-1.11-.01-1.92-.82-1.92-1.93V5H58.64V55.95h-13.56V5H5V134.35H45.08v-50.95h13.56v77.3c0,10,6.56,14.86,20.04,14.86h127.33v-29.91"/>
  </g>
  <rect class="cls-5" x="240.88" y="135.85" width="3" height="55.55"/>
  <path class="cls-5" d="M246.14,219.48c-8.3,0-15.06-6.76-15.06-15.06s6.76-15.06,15.06-15.06,15.06,6.76,15.06,15.06-6.76,15.06-15.06,15.06Zm0-27.12c-6.65,0-12.06,5.41-12.06,12.06s5.41,12.06,12.06,12.06,12.06-5.41,12.06-12.06-5.41-12.06-12.06-12.06Z"/>
  <rect class="cls-5" x="223.71" y="236.67" width="40.39" height="3" transform="translate(-2.08 474.19) rotate(-88.13)"/>
  <path class="cls-5" d="M224.5,241.15c-.46,0-.92-.21-1.21-.62-.49-.67-.34-1.61,.33-2.1l17.96-13.09c.67-.49,1.61-.34,2.1,.33,.49,.67,.34,1.61-.33,2.1l-17.96,13.09c-.27,.19-.58,.29-.88,.29Z"/>
  <path class="cls-5" d="M262.77,241.63c-.33,0-.67-.11-.95-.34l-17.22-14.05c-.64-.52-.74-1.47-.21-2.11,.52-.64,1.47-.74,2.11-.21l17.22,14.05c.64,.52,.74,1.47,.21,2.11-.3,.36-.73,.55-1.16,.55Z"/>
  <path class="cls-5" d="M253.78,278.67c-.55,0-1.08-.31-1.34-.83l-9.88-19.91c-.37-.74-.07-1.64,.68-2.01,.74-.37,1.64-.06,2.01,.68l9.88,19.91c.37,.74,.07,1.64-.68,2.01-.21,.11-.44,.16-.67,.16Z"/>
  <path class="cls-5" d="M233.16,278.74c-.22,0-.44-.05-.65-.15-.75-.36-1.06-1.25-.7-2l9.6-20.04c.36-.75,1.25-1.06,2-.7,.75,.36,1.06,1.25,.7,2l-9.6,20.04c-.26,.54-.79,.85-1.35,.85Z"/>
</svg>